# xmcd CD database file
#
# Track frame offsets:
#	150
#	15976
#	37312
#	56780
#	79210
#	93939
#	121925
#	149168
#	168388
#	182923
#	200790
#
# Disc length: 2926 seconds
#
# Revision: 0
# Processed by: cddbd v1.5.2PL0 Copyright (c) Steve Scherf et al.
# Submitted via: CDex 1.70beta2
#
DISCID=a10b6c0b
DTITLE=Kerensa Gray - Bliss
DYEAR=2012
DGENRE=Jazz
TTITLE0=Queen Of The Wrong Thing
TTITLE1=These Hands
TTITLE2=Bliss
TTITLE3=Ain't No Sunshine
TTITLE4=Red Fish, Blue Fish
TTITLE5=Bossa Lady
TTITLE6=Take Me As I Am
TTITLE7=Fever
TTITLE8=Sometimes
TTITLE9=At Last
TTITLE10=I Am Here
EXTD=YEAR: 2012
EXTT0=
EXTT1=
EXTT2=
EXTT3=
EXTT4=
EXTT5=
EXTT6=
EXTT7=
EXTT8=
EXTT9=
EXTT10=
PLAYORDER=
